<svg width="253" height="222" viewBox="0 0 253 222" fill="none" xmlns="http://www.w3.org/2000/svg">
<path d="M126.363 11C188.143 11 247.263 122 241.363 172.33C241.293 172.9 241.213 173.48 241.123 174.05C237.853 195.34 219.123 210.79 197.553 210.79H55.2128C33.6828 210.79 14.9128 195.33 11.6428 174.05C11.5528 173.47 11.4828 172.9 11.4128 172.33C5.47276 122 64.6128 11 126.363 11Z" fill="#F2F2F2"/>
<path d="M182.523 210.79C184.223 201.44 195.393 136.66 169.063 121.97C164.413 119.37 151.493 119.33 125.853 119.34C100.853 119.34 88.2228 119.41 83.6428 121.97C57.3928 136.62 68.4628 201.16 70.2028 210.79H182.523Z" fill="#32A2D2"/>
<g style="mix-blend-mode:multiply">
<path d="M241.043 174.05C237.763 195.34 219.043 210.79 197.463 210.79H55.1728C33.6328 210.79 14.8728 195.33 11.6028 174.05" fill="#B5BDC4"/>
</g>
<path d="M126.363 11C188.143 11 247.263 122 241.363 172.33C241.293 172.9 241.213 173.48 241.123 174.05C237.853 195.34 219.123 210.79 197.553 210.79H55.2128C33.6828 210.79 14.9128 195.33 11.6428 174.05C11.5528 173.47 11.4828 172.9 11.4128 172.33C5.47276 122 64.6128 11 126.363 11Z" stroke="#1D1D1F" stroke-width="20.77" stroke-linejoin="round"/>
</svg>
